<svg version="1.1" id="Capa_1" xmlns="http://www.w3.org/2000/svg" xmlns:xlink="http://www.w3.org/1999/xlink" x="0px" y="0px" viewBox="0 0 512 512" style="enable-background:new 0 0 512 512;" xml:space="preserve">
<g>
	<g>
		<path style="fill:#DCF5F8;" d="M467.363,163.347v253.575H44.637V163.347c0-7.97,6.46-14.42,14.42-14.42h393.885&#10;&#9;&#9;&#9;C460.903,148.927,467.363,155.377,467.363,163.347z"/>
		<path style="fill:#C8EFFE;" d="M452.943,148.927h-34.485c7.96,0,14.42,6.45,14.42,14.42v253.575h34.485V163.347&#10;&#9;&#9;&#9;C467.363,155.377,460.903,148.927,452.943,148.927z"/>
		<path style="fill:#9FACBA;" d="M200.834,148.924v15.523c0,6.339,5.139,11.477,11.477,11.477h87.376&#10;&#9;&#9;&#9;c6.339,0,11.477-5.139,11.477-11.477v-15.523H200.834z"/>
		<path style="fill:#8D9CA8;" d="M24.058,416.922h463.884c9.145,0,16.558,7.413,16.558,16.558v0&#10;&#9;&#9;&#9;c0,25.615-20.765,46.381-46.381,46.381H53.881C28.265,479.86,7.5,459.095,7.5,433.48v0C7.5,424.335,14.913,416.922,24.058,416.922&#10;&#9;&#9;&#9;z"/>
		<path style="fill:#7A8C98;" d="M487.942,416.922h-34.485c9.145,0,16.558,7.413,16.558,16.558v0&#10;&#9;&#9;&#9;c0,25.615-20.765,46.381-46.381,46.381h34.485c25.615,0,46.381-20.765,46.381-46.381v0&#10;&#9;&#9;&#9;C504.5,424.335,497.087,416.922,487.942,416.922z"/>
		<path style="fill:#9FACBA;" d="M273.655,448.391h-35.311c-6.209,0-11.242-5.033-11.242-11.242v-20.227h57.795v20.227&#10;&#9;&#9;&#9;C284.898,443.358,279.864,448.391,273.655,448.391z"/>
		<path style="fill:#FFF9E2;" d="M251.97,226.913v137.03c0,7.63-6.19,13.83-13.82,13.83H101.12c-7.64,0-13.83-6.2-13.83-13.83&#10;&#9;&#9;&#9;v-137.03c0-7.63,6.19-13.83,13.83-13.83h137.03C245.78,213.083,251.97,219.283,251.97,226.913z"/>
		<path style="fill:#FFF5C6;" d="M238.15,213.083h-34.485c7.63,0,13.82,6.2,13.82,13.83v137.03c0,7.63-6.19,13.83-13.82,13.83&#10;&#9;&#9;&#9;h34.485c7.63,0,13.82-6.2,13.82-13.83v-137.03C251.97,219.283,245.78,213.083,238.15,213.083z"/>
		<path style="fill:#6C7FD8;" d="M251.97,226.913v25.74H87.29v-25.74c0-7.63,6.19-13.83,13.83-13.83h137.03&#10;&#9;&#9;&#9;C245.78,213.083,251.97,219.283,251.97,226.913z"/>
		<path style="fill:#6C7FD8;" d="M251.97,226.913v25.74H87.29v-25.74c0-7.63,6.19-13.83,13.83-13.83h137.03&#10;&#9;&#9;&#9;C245.78,213.083,251.97,219.283,251.97,226.913z"/>
		<path style="fill:#4F66D0;" d="M238.15,213.083h-34.485c7.63,0,13.82,6.2,13.82,13.83v25.74h34.485v-25.74&#10;&#9;&#9;&#9;C251.97,219.283,245.78,213.083,238.15,213.083z"/>
		<path style="fill:#FFF9E2;" d="M485.198,242.418H313.524c-10.66,0-19.302-8.642-19.302-19.302V51.441&#10;&#9;&#9;&#9;c0-10.66,8.642-19.302,19.302-19.302h171.675c10.66,0,19.302,8.642,19.302,19.302v171.675&#10;&#9;&#9;&#9;C504.5,233.776,495.858,242.418,485.198,242.418z"/>
		<path style="fill:#FFF5C6;" d="M485.198,32.14h-34.485c10.66,0,19.302,8.642,19.302,19.302v171.675&#10;&#9;&#9;&#9;c0,10.66-8.642,19.302-19.302,19.302h34.485c10.66,0,19.302-8.642,19.302-19.302V51.441C504.5,40.781,495.858,32.14,485.198,32.14&#10;&#9;&#9;&#9;z"/>
		<circle style="fill:#62DBFB;" cx="399.361" cy="316.111" r="15.264"/>
		<g>
			<path style="fill:#FE646F;" d="M390.467,212.042L390.467,212.042c-4.672,0-8.755-3.155-9.933-7.677l-5.237-20.098&#10;&#9;&#9;&#9;&#9;c0,0-22.316,2.517-28.951-13.454s5.428-27.746,5.428-27.746s-24.729-13.458-15.682-35.328&#10;&#9;&#9;&#9;&#9;c8.455-20.439,31.874-20.188,31.874-20.188s-1.13-12.363,8.811-21.353c9.206-8.325,23.955-1.601,23.955,10.81v124.768&#10;&#9;&#9;&#9;&#9;C400.732,207.446,396.137,212.042,390.467,212.042z"/>
			<path style="fill:#FE646F;" d="M410.997,212.042L410.997,212.042c4.672,0,8.755-3.155,9.933-7.677l5.237-20.098&#10;&#9;&#9;&#9;&#9;c0,0,22.316,2.517,28.951-13.454s-5.428-27.746-5.428-27.746s24.729-13.458,15.682-35.328&#10;&#9;&#9;&#9;&#9;c-8.455-20.439-31.874-20.188-31.874-20.188s1.13-12.363-8.811-21.353c-9.206-8.325-23.955-1.601-23.955,10.81v124.768&#10;&#9;&#9;&#9;&#9;C400.732,207.446,405.328,212.042,410.997,212.042z"/>
		</g>
	</g>
	<g>
		<path style="fill:none;stroke:#000000;stroke-width:15;stroke-linecap:round;stroke-linejoin:round;stroke-miterlimit:10;" d="&#10;&#9;&#9;&#9;M467.36,277.459v139.463H44.64v-253.57c0-7.97,6.46-14.42,14.42-14.42h235.16"/>
		<path style="fill:none;stroke:#000000;stroke-width:15;stroke-linecap:round;stroke-linejoin:round;stroke-miterlimit:10;" d="&#10;&#9;&#9;&#9;M294.22,175.922h-81.91c-6.34,0-11.48-5.14-11.48-11.48v-15.52h93.39"/>
		<path style="fill:none;stroke:#000000;stroke-width:15;stroke-linecap:round;stroke-linejoin:round;stroke-miterlimit:10;" d="&#10;&#9;&#9;&#9;M91.704,479.86H53.881C28.265,479.86,7.5,459.095,7.5,433.48v0c0-9.145,7.413-16.558,16.558-16.558h463.884&#10;&#9;&#9;&#9;c9.145,0,16.558,7.413,16.558,16.558v0c0,25.615-20.765,46.381-46.381,46.381H126.816"/>
		<path style="fill:none;stroke:#000000;stroke-width:15;stroke-linecap:round;stroke-linejoin:round;stroke-miterlimit:10;" d="&#10;&#9;&#9;&#9;M273.655,448.391h-35.311c-6.209,0-11.242-5.033-11.242-11.242v-20.227h57.795v20.227&#10;&#9;&#9;&#9;C284.898,443.358,279.864,448.391,273.655,448.391z"/>
		<path style="fill:none;stroke:#000000;stroke-width:15;stroke-linecap:round;stroke-linejoin:round;stroke-miterlimit:10;" d="&#10;&#9;&#9;&#9;M251.97,226.913v137.03c0,7.63-6.19,13.83-13.82,13.83H101.12c-7.64,0-13.83-6.2-13.83-13.83v-137.03&#10;&#9;&#9;&#9;c0-7.63,6.19-13.83,13.83-13.83h137.03C245.78,213.083,251.97,219.283,251.97,226.913z"/>
		<path style="fill:none;stroke:#000000;stroke-width:15;stroke-linecap:round;stroke-linejoin:round;stroke-miterlimit:10;" d="&#10;&#9;&#9;&#9;M251.97,226.913v25.74H87.29v-25.74c0-7.63,6.19-13.83,13.83-13.83h137.03C245.78,213.083,251.97,219.283,251.97,226.913z"/>
		<g>
			
				<line style="fill:none;stroke:#000000;stroke-width:15;stroke-linecap:round;stroke-linejoin:round;stroke-miterlimit:10;" x1="129.468" y1="286.051" x2="209.804" y2="286.051"/>
			
				<line style="fill:none;stroke:#000000;stroke-width:15;stroke-linecap:round;stroke-linejoin:round;stroke-miterlimit:10;" x1="129.468" y1="316.111" x2="209.804" y2="316.111"/>
			
				<line style="fill:none;stroke:#000000;stroke-width:15;stroke-linecap:round;stroke-linejoin:round;stroke-miterlimit:10;" x1="129.468" y1="346.171" x2="169.636" y2="346.171"/>
		</g>
		<path style="fill:none;stroke:#000000;stroke-width:15;stroke-linecap:round;stroke-linejoin:round;stroke-miterlimit:10;" d="&#10;&#9;&#9;&#9;M485.198,242.418H313.524c-10.66,0-19.302-8.642-19.302-19.302V51.441c0-10.66,8.642-19.302,19.302-19.302h171.675&#10;&#9;&#9;&#9;c10.66,0,19.302,8.642,19.302,19.302v171.675C504.5,233.776,495.858,242.418,485.198,242.418z"/>
		
			<line style="fill:none;stroke:#000000;stroke-width:15;stroke-linecap:round;stroke-linejoin:round;stroke-miterlimit:10;" x1="384.1" y1="316.112" x2="251.97" y2="316.112"/>
		
			<line style="fill:none;stroke:#000000;stroke-width:15;stroke-linecap:round;stroke-linejoin:round;stroke-miterlimit:10;" x1="399.36" y1="300.852" x2="399.36" y2="242.482"/>
		
			<circle style="fill:none;stroke:#000000;stroke-width:15;stroke-linecap:round;stroke-linejoin:round;stroke-miterlimit:10;" cx="399.361" cy="316.111" r="15.264"/>
		<g>
			<path style="fill:none;stroke:#000000;stroke-width:15;stroke-linecap:round;stroke-linejoin:round;stroke-miterlimit:10;" d="&#10;&#9;&#9;&#9;&#9;M390.467,212.042L390.467,212.042c-4.672,0-8.755-3.155-9.933-7.677l-5.237-20.098c0,0-22.316,2.517-28.951-13.454&#10;&#9;&#9;&#9;&#9;s5.428-27.746,5.428-27.746s-24.729-13.458-15.682-35.328c8.455-20.439,31.874-20.188,31.874-20.188s-1.13-12.363,8.811-21.353&#10;&#9;&#9;&#9;&#9;c9.206-8.325,23.955-1.601,23.955,10.81v124.768C400.732,207.446,396.137,212.042,390.467,212.042z"/>
			<path style="fill:none;stroke:#000000;stroke-width:15;stroke-linecap:round;stroke-linejoin:round;stroke-miterlimit:10;" d="&#10;&#9;&#9;&#9;&#9;M410.997,212.042L410.997,212.042c4.672,0,8.755-3.155,9.933-7.677l5.237-20.098c0,0,22.316,2.517,28.951-13.454&#10;&#9;&#9;&#9;&#9;s-5.428-27.746-5.428-27.746s24.729-13.458,15.682-35.328c-8.455-20.439-31.874-20.188-31.874-20.188s1.13-12.363-8.811-21.353&#10;&#9;&#9;&#9;&#9;c-9.206-8.325-23.955-1.601-23.955,10.81v124.768C400.732,207.446,405.328,212.042,410.997,212.042z"/>
			<path style="fill:none;stroke:#000000;stroke-width:15;stroke-linecap:round;stroke-linejoin:round;stroke-miterlimit:10;" d="&#10;&#9;&#9;&#9;&#9;M400.732,142.475c0,0-2.966-18.106-21.338-20.156"/>
			<path style="fill:none;stroke:#000000;stroke-width:15;stroke-linecap:round;stroke-linejoin:round;stroke-miterlimit:10;" d="&#10;&#9;&#9;&#9;&#9;M400.732,142.475c0,0,2.966-18.106,21.338-20.156"/>
		</g>
	</g>
</g>
<g>
</g>
<g>
</g>
<g>
</g>
<g>
</g>
<g>
</g>
<g>
</g>
<g>
</g>
<g>
</g>
<g>
</g>
<g>
</g>
<g>
</g>
<g>
</g>
<g>
</g>
<g>
</g>
<g>
</g>
</svg>